<?xml version="1.0" standalone="no"?>
<!DOCTYPE svg PUBLIC "-//W3C//DTD SVG 20010904//EN"
 "http://www.w3.org/TR/2001/REC-SVG-20010904/DTD/svg10.dtd">
<svg version="1.0" xmlns="http://www.w3.org/2000/svg"
 width="200.000000pt" height="200.000000pt" viewBox="0 0 200.000000 200.000000"
 preserveAspectRatio="xMidYMid meet">

<g transform="translate(0.000000,200.000000) scale(0.100000,-0.100000)"
fill="#000000" stroke="none">
<path d="M880 1994 c-188 -35 -299 -76 -427 -159 -211 -138 -362 -352 -426
-605 -29 -115 -30 -329 -3 -445 87 -380 382 -674 761 -761 118 -27 330 -25
449 4 172 43 346 141 471 267 126 125 224 299 267 471 29 119 31 331 4 449
-85 373 -371 664 -741 756 -77 20 -297 34 -355 23z m355 -194 c277 -89 479
-292 567 -570 20 -65 23 -96 23 -225 0 -169 -12 -231 -70 -352 -86 -183 -224
-322 -406 -407 -123 -59 -185 -71 -354 -71 -129 0 -160 3 -225 23 -280 89
-483 292 -572 572 -20 65 -23 95 -23 230 0 180 14 242 93 395 38 74 64 108
146 191 84 83 116 108 191 146 163 83 232 98 420 94 111 -3 155 -8 210 -26z"/>
<path d="M945 1475 l-25 -24 0 -248 0 -247 143 -143 c133 -133 145 -143 180
-143 51 0 87 35 87 86 0 34 -10 48 -125 164 l-125 126 0 202 c0 202 0 203 -25
227 -15 16 -36 25 -55 25 -19 0 -40 -9 -55 -25z"/>
</g>
</svg>
