<?xml version="1.0" standalone="no"?>
<!DOCTYPE svg PUBLIC "-//W3C//DTD SVG 20010904//EN"
 "http://www.w3.org/TR/2001/REC-SVG-20010904/DTD/svg10.dtd">
<svg version="1.0" xmlns="http://www.w3.org/2000/svg"
 width="512.000000pt" height="512.000000pt" viewBox="0 0 512.000000 512.000000"
 preserveAspectRatio="xMidYMid meet">

<g transform="translate(0.000000,512.000000) scale(0.100000,-0.100000)"
fill="#000000" stroke="none">
<path d="M2365 4799 c-420 -44 -853 -269 -1129 -585 -370 -425 -520 -993 -406
-1534 46 -218 162 -485 282 -652 74 -102 1435 -1708 1448 -1708 13 0 1374
1606 1448 1708 75 105 189 331 231 462 168 520 92 1079 -208 1531 -220 330
-539 573 -920 699 -239 80 -488 106 -746 79z m401 -1000 c284 -88 477 -318
514 -612 39 -314 -133 -615 -426 -748 -93 -42 -175 -59 -294 -59 -119 0 -201
17 -294 59 -347 157 -515 547 -391 904 87 249 310 436 569 478 82 13 244 2
322 -22z"/>
</g>
</svg>
