<?xml version="1.0" standalone="no"?>
<!DOCTYPE svg PUBLIC "-//W3C//DTD SVG 20010904//EN"
 "http://www.w3.org/TR/2001/REC-SVG-20010904/DTD/svg10.dtd">
<svg version="1.0" xmlns="http://www.w3.org/2000/svg"
 width="512.000000pt" height="512.000000pt" viewBox="0 0 512.000000 512.000000"
 preserveAspectRatio="xMidYMid meet">

<g transform="translate(0.000000,512.000000) scale(0.100000,-0.100000)"
fill="#000000" stroke="none">
<path d="M1190 4764 c-58 -25 -222 -95 -365 -155 -142 -60 -275 -122 -293
-136 -19 -14 -56 -59 -82 -100 -228 -349 -173 -862 162 -1493 374 -703 1087
-1484 1819 -1991 720 -498 1360 -684 1789 -518 95 36 218 114 253 161 14 18
76 151 136 293 60 143 130 307 155 365 51 118 55 146 25 206 -19 40 -43 56
-512 335 -271 161 -510 299 -533 307 -34 11 -47 11 -81 -1 -23 -8 -190 -94
-372 -191 -207 -111 -346 -180 -371 -183 -27 -4 -51 1 -82 16 -30 14 -209 187
-599 578 -591 592 -589 590 -576 670 3 19 86 183 183 364 97 182 183 349 191
372 12 34 12 47 1 81 -8 23 -146 263 -308 535 -278 468 -296 495 -334 512 -60
27 -90 23 -206 -27z"/>
</g>
</svg>
